<mxfile host="app.diagrams.net" agent="Mozilla/5.0 (Windows NT 10.0; Win64; x64) AppleWebKit/537.36 (KHTML, like Gecko) Chrome/128.0.0.0 Safari/537.36" version="24.7.8">
  <diagram name="PÃ¡gina-1" id="VsZ6RJ2YmlMLzSOLe1tB">
    <mxGraphModel dx="2100" dy="1044" grid="1" gridSize="10" guides="1" tooltips="1" connect="1" arrows="1" fold="1" page="1" pageScale="1" pageWidth="827" pageHeight="1169" math="0" shadow="0">
      <root>
        <mxCell id="0" />
        <mxCell id="1" parent="0" />
        <mxCell id="WBMJzoi1oDwy6Rc7GLwc-27" style="edgeStyle=orthogonalEdgeStyle;rounded=0;orthogonalLoop=1;jettySize=auto;html=1;endArrow=none;endFill=0;entryX=0;entryY=0.5;entryDx=0;entryDy=0;exitX=1.003;exitY=-0.062;exitDx=0;exitDy=0;exitPerimeter=0;" edge="1" parent="1" source="WBMJzoi1oDwy6Rc7GLwc-46" target="WBMJzoi1oDwy6Rc7GLwc-56">
          <mxGeometry relative="1" as="geometry">
            <mxPoint x="240" y="255" as="sourcePoint" />
            <mxPoint x="380" y="255" as="targetPoint" />
          </mxGeometry>
        </mxCell>
        <mxCell id="WBMJzoi1oDwy6Rc7GLwc-28" style="edgeStyle=orthogonalEdgeStyle;rounded=0;orthogonalLoop=1;jettySize=auto;html=1;endArrow=none;endFill=0;exitX=1;exitY=0.5;exitDx=0;exitDy=0;entryX=0;entryY=0.5;entryDx=0;entryDy=0;" edge="1" parent="1" source="WBMJzoi1oDwy6Rc7GLwc-56" target="WBMJzoi1oDwy6Rc7GLwc-66">
          <mxGeometry relative="1" as="geometry">
            <mxPoint x="520" y="255" as="sourcePoint" />
            <mxPoint x="660" y="275" as="targetPoint" />
          </mxGeometry>
        </mxCell>
        <mxCell id="WBMJzoi1oDwy6Rc7GLwc-29" value="1" style="text;html=1;align=center;verticalAlign=middle;resizable=0;points=[];autosize=1;strokeColor=#82b366;fillColor=#d5e8d4;" vertex="1" parent="1">
          <mxGeometry x="220" y="240" width="30" height="30" as="geometry" />
        </mxCell>
        <mxCell id="WBMJzoi1oDwy6Rc7GLwc-30" value="1..*" style="text;html=1;align=center;verticalAlign=middle;resizable=0;points=[];autosize=1;strokeColor=#82b366;fillColor=#d5e8d4;" vertex="1" parent="1">
          <mxGeometry x="330" y="230" width="40" height="30" as="geometry" />
        </mxCell>
        <mxCell id="WBMJzoi1oDwy6Rc7GLwc-31" value="1..*" style="text;html=1;align=center;verticalAlign=middle;resizable=0;points=[];autosize=1;strokeColor=#82b366;fillColor=#d5e8d4;" vertex="1" parent="1">
          <mxGeometry x="530" y="230" width="40" height="30" as="geometry" />
        </mxCell>
        <mxCell id="WBMJzoi1oDwy6Rc7GLwc-32" value="1" style="text;html=1;align=center;verticalAlign=middle;resizable=0;points=[];autosize=1;strokeColor=#82b366;fillColor=#d5e8d4;" vertex="1" parent="1">
          <mxGeometry x="650" y="250" width="30" height="30" as="geometry" />
        </mxCell>
        <mxCell id="WBMJzoi1oDwy6Rc7GLwc-37" value="Usuarios" style="swimlane;fontStyle=1;align=center;verticalAlign=top;childLayout=stackLayout;horizontal=1;startSize=26;horizontalStack=0;resizeParent=1;resizeParentMax=0;resizeLast=0;collapsible=1;marginBottom=0;whiteSpace=wrap;html=1;fillColor=#f8cecc;strokeColor=#b85450;" vertex="1" parent="1">
          <mxGeometry x="60" y="200" width="160" height="190" as="geometry" />
        </mxCell>
        <mxCell id="WBMJzoi1oDwy6Rc7GLwc-38" value="- Id : Guid" style="text;strokeColor=none;fillColor=none;align=left;verticalAlign=top;spacingLeft=4;spacingRight=4;overflow=hidden;rotatable=0;points=[[0,0.5],[1,0.5]];portConstraint=eastwest;whiteSpace=wrap;html=1;" vertex="1" parent="WBMJzoi1oDwy6Rc7GLwc-37">
          <mxGeometry y="26" width="160" height="26" as="geometry" />
        </mxCell>
        <mxCell id="WBMJzoi1oDwy6Rc7GLwc-47" value="- Login : string" style="text;strokeColor=none;fillColor=none;align=left;verticalAlign=top;spacingLeft=4;spacingRight=4;overflow=hidden;rotatable=0;points=[[0,0.5],[1,0.5]];portConstraint=eastwest;whiteSpace=wrap;html=1;" vertex="1" parent="WBMJzoi1oDwy6Rc7GLwc-37">
          <mxGeometry y="52" width="160" height="26" as="geometry" />
        </mxCell>
        <mxCell id="WBMJzoi1oDwy6Rc7GLwc-46" value="- Nome : string" style="text;strokeColor=none;fillColor=none;align=left;verticalAlign=top;spacingLeft=4;spacingRight=4;overflow=hidden;rotatable=0;points=[[0,0.5],[1,0.5]];portConstraint=eastwest;whiteSpace=wrap;html=1;" vertex="1" parent="WBMJzoi1oDwy6Rc7GLwc-37">
          <mxGeometry y="78" width="160" height="26" as="geometry" />
        </mxCell>
        <mxCell id="WBMJzoi1oDwy6Rc7GLwc-45" value="- Imagem : string" style="text;strokeColor=none;fillColor=none;align=left;verticalAlign=top;spacingLeft=4;spacingRight=4;overflow=hidden;rotatable=0;points=[[0,0.5],[1,0.5]];portConstraint=eastwest;whiteSpace=wrap;html=1;" vertex="1" parent="WBMJzoi1oDwy6Rc7GLwc-37">
          <mxGeometry y="104" width="160" height="26" as="geometry" />
        </mxCell>
        <mxCell id="WBMJzoi1oDwy6Rc7GLwc-39" value="" style="line;strokeWidth=1;fillColor=none;align=left;verticalAlign=middle;spacingTop=-1;spacingLeft=3;spacingRight=3;rotatable=0;labelPosition=right;points=[];portConstraint=eastwest;strokeColor=inherit;" vertex="1" parent="WBMJzoi1oDwy6Rc7GLwc-37">
          <mxGeometry y="130" width="160" height="8" as="geometry" />
        </mxCell>
        <mxCell id="WBMJzoi1oDwy6Rc7GLwc-40" value="- FazerLogin()" style="text;strokeColor=none;fillColor=none;align=left;verticalAlign=top;spacingLeft=4;spacingRight=4;overflow=hidden;rotatable=0;points=[[0,0.5],[1,0.5]];portConstraint=eastwest;whiteSpace=wrap;html=1;" vertex="1" parent="WBMJzoi1oDwy6Rc7GLwc-37">
          <mxGeometry y="138" width="160" height="26" as="geometry" />
        </mxCell>
        <mxCell id="WBMJzoi1oDwy6Rc7GLwc-48" value="- FazerLogout()" style="text;strokeColor=none;fillColor=none;align=left;verticalAlign=top;spacingLeft=4;spacingRight=4;overflow=hidden;rotatable=0;points=[[0,0.5],[1,0.5]];portConstraint=eastwest;whiteSpace=wrap;html=1;" vertex="1" parent="WBMJzoi1oDwy6Rc7GLwc-37">
          <mxGeometry y="164" width="160" height="26" as="geometry" />
        </mxCell>
        <mxCell id="WBMJzoi1oDwy6Rc7GLwc-49" value="Ativos" style="swimlane;fontStyle=1;align=center;verticalAlign=top;childLayout=stackLayout;horizontal=1;startSize=26;horizontalStack=0;resizeParent=1;resizeParentMax=0;resizeLast=0;collapsible=1;marginBottom=0;whiteSpace=wrap;html=1;fillColor=#dae8fc;strokeColor=#6c8ebf;" vertex="1" parent="1">
          <mxGeometry x="370" y="170" width="160" height="294" as="geometry" />
        </mxCell>
        <mxCell id="WBMJzoi1oDwy6Rc7GLwc-50" value="- Id : Guid" style="text;strokeColor=none;fillColor=none;align=left;verticalAlign=top;spacingLeft=4;spacingRight=4;overflow=hidden;rotatable=0;points=[[0,0.5],[1,0.5]];portConstraint=eastwest;whiteSpace=wrap;html=1;" vertex="1" parent="WBMJzoi1oDwy6Rc7GLwc-49">
          <mxGeometry y="26" width="160" height="26" as="geometry" />
        </mxCell>
        <mxCell id="WBMJzoi1oDwy6Rc7GLwc-57" value="- Ativo : string" style="text;strokeColor=none;fillColor=none;align=left;verticalAlign=top;spacingLeft=4;spacingRight=4;overflow=hidden;rotatable=0;points=[[0,0.5],[1,0.5]];portConstraint=eastwest;whiteSpace=wrap;html=1;" vertex="1" parent="WBMJzoi1oDwy6Rc7GLwc-49">
          <mxGeometry y="52" width="160" height="26" as="geometry" />
        </mxCell>
        <mxCell id="WBMJzoi1oDwy6Rc7GLwc-56" value="- DataRegistro : DateTime" style="text;strokeColor=none;fillColor=none;align=left;verticalAlign=top;spacingLeft=4;spacingRight=4;overflow=hidden;rotatable=0;points=[[0,0.5],[1,0.5]];portConstraint=eastwest;whiteSpace=wrap;html=1;" vertex="1" parent="WBMJzoi1oDwy6Rc7GLwc-49">
          <mxGeometry y="78" width="160" height="26" as="geometry" />
        </mxCell>
        <mxCell id="WBMJzoi1oDwy6Rc7GLwc-55" value="- Status : string" style="text;strokeColor=none;fillColor=none;align=left;verticalAlign=top;spacingLeft=4;spacingRight=4;overflow=hidden;rotatable=0;points=[[0,0.5],[1,0.5]];portConstraint=eastwest;whiteSpace=wrap;html=1;" vertex="1" parent="WBMJzoi1oDwy6Rc7GLwc-49">
          <mxGeometry y="104" width="160" height="26" as="geometry" />
        </mxCell>
        <mxCell id="WBMJzoi1oDwy6Rc7GLwc-54" value="- IdLocal : guid" style="text;strokeColor=none;fillColor=none;align=left;verticalAlign=top;spacingLeft=4;spacingRight=4;overflow=hidden;rotatable=0;points=[[0,0.5],[1,0.5]];portConstraint=eastwest;whiteSpace=wrap;html=1;" vertex="1" parent="WBMJzoi1oDwy6Rc7GLwc-49">
          <mxGeometry y="130" width="160" height="26" as="geometry" />
        </mxCell>
        <mxCell id="WBMJzoi1oDwy6Rc7GLwc-53" value="- IdUsuario : guid" style="text;strokeColor=none;fillColor=none;align=left;verticalAlign=top;spacingLeft=4;spacingRight=4;overflow=hidden;rotatable=0;points=[[0,0.5],[1,0.5]];portConstraint=eastwest;whiteSpace=wrap;html=1;" vertex="1" parent="WBMJzoi1oDwy6Rc7GLwc-49">
          <mxGeometry y="156" width="160" height="26" as="geometry" />
        </mxCell>
        <mxCell id="WBMJzoi1oDwy6Rc7GLwc-51" value="" style="line;strokeWidth=1;fillColor=none;align=left;verticalAlign=middle;spacingTop=-1;spacingLeft=3;spacingRight=3;rotatable=0;labelPosition=right;points=[];portConstraint=eastwest;strokeColor=inherit;" vertex="1" parent="WBMJzoi1oDwy6Rc7GLwc-49">
          <mxGeometry y="182" width="160" height="8" as="geometry" />
        </mxCell>
        <mxCell id="WBMJzoi1oDwy6Rc7GLwc-52" value="- Inserir()" style="text;strokeColor=none;fillColor=none;align=left;verticalAlign=top;spacingLeft=4;spacingRight=4;overflow=hidden;rotatable=0;points=[[0,0.5],[1,0.5]];portConstraint=eastwest;whiteSpace=wrap;html=1;" vertex="1" parent="WBMJzoi1oDwy6Rc7GLwc-49">
          <mxGeometry y="190" width="160" height="26" as="geometry" />
        </mxCell>
        <mxCell id="WBMJzoi1oDwy6Rc7GLwc-60" value="- Remover()" style="text;strokeColor=none;fillColor=none;align=left;verticalAlign=top;spacingLeft=4;spacingRight=4;overflow=hidden;rotatable=0;points=[[0,0.5],[1,0.5]];portConstraint=eastwest;whiteSpace=wrap;html=1;" vertex="1" parent="WBMJzoi1oDwy6Rc7GLwc-49">
          <mxGeometry y="216" width="160" height="26" as="geometry" />
        </mxCell>
        <mxCell id="WBMJzoi1oDwy6Rc7GLwc-59" value="- Listar()" style="text;strokeColor=none;fillColor=none;align=left;verticalAlign=top;spacingLeft=4;spacingRight=4;overflow=hidden;rotatable=0;points=[[0,0.5],[1,0.5]];portConstraint=eastwest;whiteSpace=wrap;html=1;" vertex="1" parent="WBMJzoi1oDwy6Rc7GLwc-49">
          <mxGeometry y="242" width="160" height="26" as="geometry" />
        </mxCell>
        <mxCell id="WBMJzoi1oDwy6Rc7GLwc-58" value="- Atualizar()" style="text;strokeColor=none;fillColor=none;align=left;verticalAlign=top;spacingLeft=4;spacingRight=4;overflow=hidden;rotatable=0;points=[[0,0.5],[1,0.5]];portConstraint=eastwest;whiteSpace=wrap;html=1;" vertex="1" parent="WBMJzoi1oDwy6Rc7GLwc-49">
          <mxGeometry y="268" width="160" height="26" as="geometry" />
        </mxCell>
        <mxCell id="WBMJzoi1oDwy6Rc7GLwc-65" value="Locais" style="swimlane;fontStyle=1;align=center;verticalAlign=top;childLayout=stackLayout;horizontal=1;startSize=26;horizontalStack=0;resizeParent=1;resizeParentMax=0;resizeLast=0;collapsible=1;marginBottom=0;whiteSpace=wrap;html=1;fillColor=#ffe6cc;strokeColor=#d79b00;" vertex="1" parent="1">
          <mxGeometry x="680" y="250" width="160" height="86" as="geometry" />
        </mxCell>
        <mxCell id="WBMJzoi1oDwy6Rc7GLwc-66" value="- Id : Guid" style="text;strokeColor=none;fillColor=none;align=left;verticalAlign=top;spacingLeft=4;spacingRight=4;overflow=hidden;rotatable=0;points=[[0,0.5],[1,0.5]];portConstraint=eastwest;whiteSpace=wrap;html=1;" vertex="1" parent="WBMJzoi1oDwy6Rc7GLwc-65">
          <mxGeometry y="26" width="160" height="26" as="geometry" />
        </mxCell>
        <mxCell id="WBMJzoi1oDwy6Rc7GLwc-69" value="- Local : string" style="text;strokeColor=none;fillColor=none;align=left;verticalAlign=top;spacingLeft=4;spacingRight=4;overflow=hidden;rotatable=0;points=[[0,0.5],[1,0.5]];portConstraint=eastwest;whiteSpace=wrap;html=1;" vertex="1" parent="WBMJzoi1oDwy6Rc7GLwc-65">
          <mxGeometry y="52" width="160" height="26" as="geometry" />
        </mxCell>
        <mxCell id="WBMJzoi1oDwy6Rc7GLwc-67" value="" style="line;strokeWidth=1;fillColor=none;align=left;verticalAlign=middle;spacingTop=-1;spacingLeft=3;spacingRight=3;rotatable=0;labelPosition=right;points=[];portConstraint=eastwest;strokeColor=inherit;" vertex="1" parent="WBMJzoi1oDwy6Rc7GLwc-65">
          <mxGeometry y="78" width="160" height="8" as="geometry" />
        </mxCell>
        <mxCell id="WBMJzoi1oDwy6Rc7GLwc-70" value="&lt;font style=&quot;font-size: 25px;&quot;&gt;Diagrama de Classes&lt;/font&gt;" style="text;html=1;align=center;verticalAlign=middle;resizable=0;points=[];autosize=1;strokeColor=#006EAF;fillColor=#1ba1e2;fontColor=#ffffff;" vertex="1" parent="1">
          <mxGeometry x="320" y="85" width="260" height="40" as="geometry" />
        </mxCell>
        <mxCell id="WBMJzoi1oDwy6Rc7GLwc-71" value="Modelagem Banco de Dados" style="text;html=1;align=center;verticalAlign=middle;resizable=0;points=[];autosize=1;strokeColor=#001DBC;fillColor=#0050ef;fontColor=#ffffff;fontSize=25;" vertex="1" parent="1">
          <mxGeometry x="330" y="580" width="350" height="40" as="geometry" />
        </mxCell>
        <mxCell id="WBMJzoi1oDwy6Rc7GLwc-99" value="Ativos" style="shape=table;startSize=30;container=1;collapsible=1;childLayout=tableLayout;fixedRows=1;rowLines=0;fontStyle=1;align=center;resizeLast=1;html=1;whiteSpace=wrap;fillColor=#dae8fc;strokeColor=#6c8ebf;" vertex="1" parent="1">
          <mxGeometry x="400" y="650" width="236" height="240" as="geometry" />
        </mxCell>
        <mxCell id="WBMJzoi1oDwy6Rc7GLwc-100" value="" style="shape=tableRow;horizontal=0;startSize=0;swimlaneHead=0;swimlaneBody=0;fillColor=none;collapsible=0;dropTarget=0;points=[[0,0.5],[1,0.5]];portConstraint=eastwest;top=0;left=0;right=0;bottom=0;html=1;" vertex="1" parent="WBMJzoi1oDwy6Rc7GLwc-99">
          <mxGeometry y="30" width="236" height="30" as="geometry" />
        </mxCell>
        <mxCell id="WBMJzoi1oDwy6Rc7GLwc-101" value="PK" style="shape=partialRectangle;connectable=0;fillColor=none;top=0;left=0;bottom=0;right=0;fontStyle=1;overflow=hidden;html=1;whiteSpace=wrap;" vertex="1" parent="WBMJzoi1oDwy6Rc7GLwc-100">
          <mxGeometry width="60" height="30" as="geometry">
            <mxRectangle width="60" height="30" as="alternateBounds" />
          </mxGeometry>
        </mxCell>
        <mxCell id="WBMJzoi1oDwy6Rc7GLwc-102" value="IdAtivo : UniqueIdentifier" style="shape=partialRectangle;connectable=0;fillColor=none;top=0;left=0;bottom=0;right=0;align=left;spacingLeft=6;fontStyle=5;overflow=hidden;html=1;whiteSpace=wrap;" vertex="1" parent="WBMJzoi1oDwy6Rc7GLwc-100">
          <mxGeometry x="60" width="176" height="30" as="geometry">
            <mxRectangle width="176" height="30" as="alternateBounds" />
          </mxGeometry>
        </mxCell>
        <mxCell id="WBMJzoi1oDwy6Rc7GLwc-115" style="shape=tableRow;horizontal=0;startSize=0;swimlaneHead=0;swimlaneBody=0;fillColor=none;collapsible=0;dropTarget=0;points=[[0,0.5],[1,0.5]];portConstraint=eastwest;top=0;left=0;right=0;bottom=0;html=1;" vertex="1" parent="WBMJzoi1oDwy6Rc7GLwc-99">
          <mxGeometry y="60" width="236" height="30" as="geometry" />
        </mxCell>
        <mxCell id="WBMJzoi1oDwy6Rc7GLwc-116" value="FK1" style="shape=partialRectangle;connectable=0;fillColor=none;top=0;left=0;bottom=0;right=0;fontStyle=1;overflow=hidden;html=1;whiteSpace=wrap;" vertex="1" parent="WBMJzoi1oDwy6Rc7GLwc-115">
          <mxGeometry width="60" height="30" as="geometry">
            <mxRectangle width="60" height="30" as="alternateBounds" />
          </mxGeometry>
        </mxCell>
        <mxCell id="WBMJzoi1oDwy6Rc7GLwc-117" value="IdUsuario : UniqueIdentifier" style="shape=partialRectangle;connectable=0;fillColor=none;top=0;left=0;bottom=0;right=0;align=left;spacingLeft=6;fontStyle=5;overflow=hidden;html=1;whiteSpace=wrap;" vertex="1" parent="WBMJzoi1oDwy6Rc7GLwc-115">
          <mxGeometry x="60" width="176" height="30" as="geometry">
            <mxRectangle width="176" height="30" as="alternateBounds" />
          </mxGeometry>
        </mxCell>
        <mxCell id="WBMJzoi1oDwy6Rc7GLwc-103" value="" style="shape=tableRow;horizontal=0;startSize=0;swimlaneHead=0;swimlaneBody=0;fillColor=none;collapsible=0;dropTarget=0;points=[[0,0.5],[1,0.5]];portConstraint=eastwest;top=0;left=0;right=0;bottom=1;html=1;" vertex="1" parent="WBMJzoi1oDwy6Rc7GLwc-99">
          <mxGeometry y="90" width="236" height="30" as="geometry" />
        </mxCell>
        <mxCell id="WBMJzoi1oDwy6Rc7GLwc-104" value="FK2" style="shape=partialRectangle;connectable=0;fillColor=none;top=0;left=0;bottom=0;right=0;fontStyle=1;overflow=hidden;html=1;whiteSpace=wrap;" vertex="1" parent="WBMJzoi1oDwy6Rc7GLwc-103">
          <mxGeometry width="60" height="30" as="geometry">
            <mxRectangle width="60" height="30" as="alternateBounds" />
          </mxGeometry>
        </mxCell>
        <mxCell id="WBMJzoi1oDwy6Rc7GLwc-105" value="IdLocal : UniqueIdentifier" style="shape=partialRectangle;connectable=0;fillColor=none;top=0;left=0;bottom=0;right=0;align=left;spacingLeft=6;fontStyle=5;overflow=hidden;html=1;whiteSpace=wrap;" vertex="1" parent="WBMJzoi1oDwy6Rc7GLwc-103">
          <mxGeometry x="60" width="176" height="30" as="geometry">
            <mxRectangle width="176" height="30" as="alternateBounds" />
          </mxGeometry>
        </mxCell>
        <mxCell id="WBMJzoi1oDwy6Rc7GLwc-106" value="" style="shape=tableRow;horizontal=0;startSize=0;swimlaneHead=0;swimlaneBody=0;fillColor=none;collapsible=0;dropTarget=0;points=[[0,0.5],[1,0.5]];portConstraint=eastwest;top=0;left=0;right=0;bottom=0;html=1;" vertex="1" parent="WBMJzoi1oDwy6Rc7GLwc-99">
          <mxGeometry y="120" width="236" height="30" as="geometry" />
        </mxCell>
        <mxCell id="WBMJzoi1oDwy6Rc7GLwc-107" value="" style="shape=partialRectangle;connectable=0;fillColor=none;top=0;left=0;bottom=0;right=0;editable=1;overflow=hidden;html=1;whiteSpace=wrap;" vertex="1" parent="WBMJzoi1oDwy6Rc7GLwc-106">
          <mxGeometry width="60" height="30" as="geometry">
            <mxRectangle width="60" height="30" as="alternateBounds" />
          </mxGeometry>
        </mxCell>
        <mxCell id="WBMJzoi1oDwy6Rc7GLwc-108" value="Ativo : VARCHAR(100)" style="shape=partialRectangle;connectable=0;fillColor=none;top=0;left=0;bottom=0;right=0;align=left;spacingLeft=6;overflow=hidden;html=1;whiteSpace=wrap;" vertex="1" parent="WBMJzoi1oDwy6Rc7GLwc-106">
          <mxGeometry x="60" width="176" height="30" as="geometry">
            <mxRectangle width="176" height="30" as="alternateBounds" />
          </mxGeometry>
        </mxCell>
        <mxCell id="WBMJzoi1oDwy6Rc7GLwc-109" value="" style="shape=tableRow;horizontal=0;startSize=0;swimlaneHead=0;swimlaneBody=0;fillColor=none;collapsible=0;dropTarget=0;points=[[0,0.5],[1,0.5]];portConstraint=eastwest;top=0;left=0;right=0;bottom=0;html=1;" vertex="1" parent="WBMJzoi1oDwy6Rc7GLwc-99">
          <mxGeometry y="150" width="236" height="30" as="geometry" />
        </mxCell>
        <mxCell id="WBMJzoi1oDwy6Rc7GLwc-110" value="" style="shape=partialRectangle;connectable=0;fillColor=none;top=0;left=0;bottom=0;right=0;editable=1;overflow=hidden;html=1;whiteSpace=wrap;" vertex="1" parent="WBMJzoi1oDwy6Rc7GLwc-109">
          <mxGeometry width="60" height="30" as="geometry">
            <mxRectangle width="60" height="30" as="alternateBounds" />
          </mxGeometry>
        </mxCell>
        <mxCell id="WBMJzoi1oDwy6Rc7GLwc-111" value="DataRegistro : DateTime" style="shape=partialRectangle;connectable=0;fillColor=none;top=0;left=0;bottom=0;right=0;align=left;spacingLeft=6;overflow=hidden;html=1;whiteSpace=wrap;" vertex="1" parent="WBMJzoi1oDwy6Rc7GLwc-109">
          <mxGeometry x="60" width="176" height="30" as="geometry">
            <mxRectangle width="176" height="30" as="alternateBounds" />
          </mxGeometry>
        </mxCell>
        <mxCell id="WBMJzoi1oDwy6Rc7GLwc-118" style="shape=tableRow;horizontal=0;startSize=0;swimlaneHead=0;swimlaneBody=0;fillColor=none;collapsible=0;dropTarget=0;points=[[0,0.5],[1,0.5]];portConstraint=eastwest;top=0;left=0;right=0;bottom=0;html=1;" vertex="1" parent="WBMJzoi1oDwy6Rc7GLwc-99">
          <mxGeometry y="180" width="236" height="30" as="geometry" />
        </mxCell>
        <mxCell id="WBMJzoi1oDwy6Rc7GLwc-119" style="shape=partialRectangle;connectable=0;fillColor=none;top=0;left=0;bottom=0;right=0;editable=1;overflow=hidden;html=1;whiteSpace=wrap;" vertex="1" parent="WBMJzoi1oDwy6Rc7GLwc-118">
          <mxGeometry width="60" height="30" as="geometry">
            <mxRectangle width="60" height="30" as="alternateBounds" />
          </mxGeometry>
        </mxCell>
        <mxCell id="WBMJzoi1oDwy6Rc7GLwc-120" value="Status : VARCHAR(100)" style="shape=partialRectangle;connectable=0;fillColor=none;top=0;left=0;bottom=0;right=0;align=left;spacingLeft=6;overflow=hidden;html=1;whiteSpace=wrap;" vertex="1" parent="WBMJzoi1oDwy6Rc7GLwc-118">
          <mxGeometry x="60" width="176" height="30" as="geometry">
            <mxRectangle width="176" height="30" as="alternateBounds" />
          </mxGeometry>
        </mxCell>
        <mxCell id="WBMJzoi1oDwy6Rc7GLwc-121" style="shape=tableRow;horizontal=0;startSize=0;swimlaneHead=0;swimlaneBody=0;fillColor=none;collapsible=0;dropTarget=0;points=[[0,0.5],[1,0.5]];portConstraint=eastwest;top=0;left=0;right=0;bottom=0;html=1;" vertex="1" parent="WBMJzoi1oDwy6Rc7GLwc-99">
          <mxGeometry y="210" width="236" height="30" as="geometry" />
        </mxCell>
        <mxCell id="WBMJzoi1oDwy6Rc7GLwc-122" style="shape=partialRectangle;connectable=0;fillColor=none;top=0;left=0;bottom=0;right=0;editable=1;overflow=hidden;html=1;whiteSpace=wrap;" vertex="1" parent="WBMJzoi1oDwy6Rc7GLwc-121">
          <mxGeometry width="60" height="30" as="geometry">
            <mxRectangle width="60" height="30" as="alternateBounds" />
          </mxGeometry>
        </mxCell>
        <mxCell id="WBMJzoi1oDwy6Rc7GLwc-123" value="NumeroAtivo : Int" style="shape=partialRectangle;connectable=0;fillColor=none;top=0;left=0;bottom=0;right=0;align=left;spacingLeft=6;overflow=hidden;html=1;whiteSpace=wrap;" vertex="1" parent="WBMJzoi1oDwy6Rc7GLwc-121">
          <mxGeometry x="60" width="176" height="30" as="geometry">
            <mxRectangle width="176" height="30" as="alternateBounds" />
          </mxGeometry>
        </mxCell>
        <mxCell id="WBMJzoi1oDwy6Rc7GLwc-124" value="Locais" style="shape=table;startSize=30;container=1;collapsible=1;childLayout=tableLayout;fixedRows=1;rowLines=0;fontStyle=1;align=center;resizeLast=1;html=1;whiteSpace=wrap;fillColor=#ffe6cc;strokeColor=#d79b00;" vertex="1" parent="1">
          <mxGeometry x="740" y="665" width="220" height="90" as="geometry" />
        </mxCell>
        <mxCell id="WBMJzoi1oDwy6Rc7GLwc-128" value="" style="shape=tableRow;horizontal=0;startSize=0;swimlaneHead=0;swimlaneBody=0;fillColor=none;collapsible=0;dropTarget=0;points=[[0,0.5],[1,0.5]];portConstraint=eastwest;top=0;left=0;right=0;bottom=1;html=1;" vertex="1" parent="WBMJzoi1oDwy6Rc7GLwc-124">
          <mxGeometry y="30" width="220" height="30" as="geometry" />
        </mxCell>
        <mxCell id="WBMJzoi1oDwy6Rc7GLwc-129" value="PK" style="shape=partialRectangle;connectable=0;fillColor=none;top=0;left=0;bottom=0;right=0;fontStyle=1;overflow=hidden;html=1;whiteSpace=wrap;" vertex="1" parent="WBMJzoi1oDwy6Rc7GLwc-128">
          <mxGeometry width="60" height="30" as="geometry">
            <mxRectangle width="60" height="30" as="alternateBounds" />
          </mxGeometry>
        </mxCell>
        <mxCell id="WBMJzoi1oDwy6Rc7GLwc-130" value="IdLocal : UniqueIdentifier" style="shape=partialRectangle;connectable=0;fillColor=none;top=0;left=0;bottom=0;right=0;align=left;spacingLeft=6;fontStyle=5;overflow=hidden;html=1;whiteSpace=wrap;" vertex="1" parent="WBMJzoi1oDwy6Rc7GLwc-128">
          <mxGeometry x="60" width="160" height="30" as="geometry">
            <mxRectangle width="160" height="30" as="alternateBounds" />
          </mxGeometry>
        </mxCell>
        <mxCell id="WBMJzoi1oDwy6Rc7GLwc-131" value="" style="shape=tableRow;horizontal=0;startSize=0;swimlaneHead=0;swimlaneBody=0;fillColor=none;collapsible=0;dropTarget=0;points=[[0,0.5],[1,0.5]];portConstraint=eastwest;top=0;left=0;right=0;bottom=0;html=1;" vertex="1" parent="WBMJzoi1oDwy6Rc7GLwc-124">
          <mxGeometry y="60" width="220" height="30" as="geometry" />
        </mxCell>
        <mxCell id="WBMJzoi1oDwy6Rc7GLwc-132" value="" style="shape=partialRectangle;connectable=0;fillColor=none;top=0;left=0;bottom=0;right=0;editable=1;overflow=hidden;html=1;whiteSpace=wrap;" vertex="1" parent="WBMJzoi1oDwy6Rc7GLwc-131">
          <mxGeometry width="60" height="30" as="geometry">
            <mxRectangle width="60" height="30" as="alternateBounds" />
          </mxGeometry>
        </mxCell>
        <mxCell id="WBMJzoi1oDwy6Rc7GLwc-133" value="Local : VARCHAR(100)" style="shape=partialRectangle;connectable=0;fillColor=none;top=0;left=0;bottom=0;right=0;align=left;spacingLeft=6;overflow=hidden;html=1;whiteSpace=wrap;" vertex="1" parent="WBMJzoi1oDwy6Rc7GLwc-131">
          <mxGeometry x="60" width="160" height="30" as="geometry">
            <mxRectangle width="160" height="30" as="alternateBounds" />
          </mxGeometry>
        </mxCell>
        <mxCell id="WBMJzoi1oDwy6Rc7GLwc-143" value="" style="edgeStyle=entityRelationEdgeStyle;fontSize=12;html=1;endArrow=ERoneToMany;rounded=0;exitX=1.001;exitY=0.117;exitDx=0;exitDy=0;exitPerimeter=0;entryX=0;entryY=0.5;entryDx=0;entryDy=0;" edge="1" parent="1" source="WBMJzoi1oDwy6Rc7GLwc-158" target="WBMJzoi1oDwy6Rc7GLwc-100">
          <mxGeometry width="100" height="100" relative="1" as="geometry">
            <mxPoint x="298.3899999999999" y="679.55" as="sourcePoint" />
            <mxPoint x="490" y="570" as="targetPoint" />
            <Array as="points">
              <mxPoint x="290" y="580" />
            </Array>
          </mxGeometry>
        </mxCell>
        <mxCell id="WBMJzoi1oDwy6Rc7GLwc-144" value="" style="edgeStyle=entityRelationEdgeStyle;fontSize=12;html=1;endArrow=ERoneToMany;rounded=0;exitX=0;exitY=0.25;exitDx=0;exitDy=0;entryX=1;entryY=0.5;entryDx=0;entryDy=0;" edge="1" parent="1" source="WBMJzoi1oDwy6Rc7GLwc-124" target="WBMJzoi1oDwy6Rc7GLwc-100">
          <mxGeometry width="100" height="100" relative="1" as="geometry">
            <mxPoint x="755" y="565" as="sourcePoint" />
            <mxPoint x="857" y="580" as="targetPoint" />
            <Array as="points">
              <mxPoint x="747" y="465" />
            </Array>
          </mxGeometry>
        </mxCell>
        <mxCell id="WBMJzoi1oDwy6Rc7GLwc-158" value="Usuarios" style="shape=table;startSize=30;container=1;collapsible=1;childLayout=tableLayout;fixedRows=1;rowLines=0;fontStyle=1;align=center;resizeLast=1;html=1;whiteSpace=wrap;fillColor=#f8cecc;strokeColor=#b85450;" vertex="1" parent="1">
          <mxGeometry y="650" width="270" height="150" as="geometry" />
        </mxCell>
        <mxCell id="WBMJzoi1oDwy6Rc7GLwc-159" value="" style="shape=tableRow;horizontal=0;startSize=0;swimlaneHead=0;swimlaneBody=0;fillColor=none;collapsible=0;dropTarget=0;points=[[0,0.5],[1,0.5]];portConstraint=eastwest;top=0;left=0;right=0;bottom=1;html=1;" vertex="1" parent="WBMJzoi1oDwy6Rc7GLwc-158">
          <mxGeometry y="30" width="270" height="30" as="geometry" />
        </mxCell>
        <mxCell id="WBMJzoi1oDwy6Rc7GLwc-160" value="PK" style="shape=partialRectangle;connectable=0;fillColor=none;top=0;left=0;bottom=0;right=0;fontStyle=1;overflow=hidden;html=1;whiteSpace=wrap;" vertex="1" parent="WBMJzoi1oDwy6Rc7GLwc-159">
          <mxGeometry width="60" height="30" as="geometry">
            <mxRectangle width="60" height="30" as="alternateBounds" />
          </mxGeometry>
        </mxCell>
        <mxCell id="WBMJzoi1oDwy6Rc7GLwc-161" value="IdUsuario : UniqueIdentifier" style="shape=partialRectangle;connectable=0;fillColor=none;top=0;left=0;bottom=0;right=0;align=left;spacingLeft=6;fontStyle=5;overflow=hidden;html=1;whiteSpace=wrap;" vertex="1" parent="WBMJzoi1oDwy6Rc7GLwc-159">
          <mxGeometry x="60" width="210" height="30" as="geometry">
            <mxRectangle width="210" height="30" as="alternateBounds" />
          </mxGeometry>
        </mxCell>
        <mxCell id="WBMJzoi1oDwy6Rc7GLwc-162" value="" style="shape=tableRow;horizontal=0;startSize=0;swimlaneHead=0;swimlaneBody=0;fillColor=none;collapsible=0;dropTarget=0;points=[[0,0.5],[1,0.5]];portConstraint=eastwest;top=0;left=0;right=0;bottom=0;html=1;" vertex="1" parent="WBMJzoi1oDwy6Rc7GLwc-158">
          <mxGeometry y="60" width="270" height="30" as="geometry" />
        </mxCell>
        <mxCell id="WBMJzoi1oDwy6Rc7GLwc-163" value="" style="shape=partialRectangle;connectable=0;fillColor=none;top=0;left=0;bottom=0;right=0;editable=1;overflow=hidden;html=1;whiteSpace=wrap;" vertex="1" parent="WBMJzoi1oDwy6Rc7GLwc-162">
          <mxGeometry width="60" height="30" as="geometry">
            <mxRectangle width="60" height="30" as="alternateBounds" />
          </mxGeometry>
        </mxCell>
        <mxCell id="WBMJzoi1oDwy6Rc7GLwc-164" value="Login : VARCHAR(100)" style="shape=partialRectangle;connectable=0;fillColor=none;top=0;left=0;bottom=0;right=0;align=left;spacingLeft=6;overflow=hidden;html=1;whiteSpace=wrap;" vertex="1" parent="WBMJzoi1oDwy6Rc7GLwc-162">
          <mxGeometry x="60" width="210" height="30" as="geometry">
            <mxRectangle width="210" height="30" as="alternateBounds" />
          </mxGeometry>
        </mxCell>
        <mxCell id="WBMJzoi1oDwy6Rc7GLwc-165" style="shape=tableRow;horizontal=0;startSize=0;swimlaneHead=0;swimlaneBody=0;fillColor=none;collapsible=0;dropTarget=0;points=[[0,0.5],[1,0.5]];portConstraint=eastwest;top=0;left=0;right=0;bottom=0;html=1;" vertex="1" parent="WBMJzoi1oDwy6Rc7GLwc-158">
          <mxGeometry y="90" width="270" height="30" as="geometry" />
        </mxCell>
        <mxCell id="WBMJzoi1oDwy6Rc7GLwc-166" style="shape=partialRectangle;connectable=0;fillColor=none;top=0;left=0;bottom=0;right=0;editable=1;overflow=hidden;html=1;whiteSpace=wrap;" vertex="1" parent="WBMJzoi1oDwy6Rc7GLwc-165">
          <mxGeometry width="60" height="30" as="geometry">
            <mxRectangle width="60" height="30" as="alternateBounds" />
          </mxGeometry>
        </mxCell>
        <mxCell id="WBMJzoi1oDwy6Rc7GLwc-167" value="Nome : VARCHAR(100)" style="shape=partialRectangle;connectable=0;fillColor=none;top=0;left=0;bottom=0;right=0;align=left;spacingLeft=6;overflow=hidden;html=1;whiteSpace=wrap;" vertex="1" parent="WBMJzoi1oDwy6Rc7GLwc-165">
          <mxGeometry x="60" width="210" height="30" as="geometry">
            <mxRectangle width="210" height="30" as="alternateBounds" />
          </mxGeometry>
        </mxCell>
        <mxCell id="WBMJzoi1oDwy6Rc7GLwc-168" style="shape=tableRow;horizontal=0;startSize=0;swimlaneHead=0;swimlaneBody=0;fillColor=none;collapsible=0;dropTarget=0;points=[[0,0.5],[1,0.5]];portConstraint=eastwest;top=0;left=0;right=0;bottom=0;html=1;" vertex="1" parent="WBMJzoi1oDwy6Rc7GLwc-158">
          <mxGeometry y="120" width="270" height="30" as="geometry" />
        </mxCell>
        <mxCell id="WBMJzoi1oDwy6Rc7GLwc-169" style="shape=partialRectangle;connectable=0;fillColor=none;top=0;left=0;bottom=0;right=0;editable=1;overflow=hidden;html=1;whiteSpace=wrap;" vertex="1" parent="WBMJzoi1oDwy6Rc7GLwc-168">
          <mxGeometry width="60" height="30" as="geometry">
            <mxRectangle width="60" height="30" as="alternateBounds" />
          </mxGeometry>
        </mxCell>
        <mxCell id="WBMJzoi1oDwy6Rc7GLwc-170" value="Imagem : VARCHAR(256)" style="shape=partialRectangle;connectable=0;fillColor=none;top=0;left=0;bottom=0;right=0;align=left;spacingLeft=6;overflow=hidden;html=1;whiteSpace=wrap;" vertex="1" parent="WBMJzoi1oDwy6Rc7GLwc-168">
          <mxGeometry x="60" width="210" height="30" as="geometry">
            <mxRectangle width="210" height="30" as="alternateBounds" />
          </mxGeometry>
        </mxCell>
        <mxCell id="WBMJzoi1oDwy6Rc7GLwc-171" style="edgeStyle=orthogonalEdgeStyle;shape=connector;curved=1;rounded=0;orthogonalLoop=1;jettySize=auto;html=1;entryX=0.5;entryY=0;entryDx=0;entryDy=0;strokeColor=default;align=center;verticalAlign=middle;fontFamily=Helvetica;fontSize=11;fontColor=default;labelBackgroundColor=default;endArrow=classic;dashed=1;" edge="1" parent="1" source="WBMJzoi1oDwy6Rc7GLwc-173" target="WBMJzoi1oDwy6Rc7GLwc-177">
          <mxGeometry relative="1" as="geometry" />
        </mxCell>
        <mxCell id="WBMJzoi1oDwy6Rc7GLwc-172" value="Include" style="edgeLabel;html=1;align=center;verticalAlign=middle;resizable=0;points=[];fontFamily=Helvetica;fontSize=11;fontColor=default;labelBackgroundColor=default;" vertex="1" connectable="0" parent="WBMJzoi1oDwy6Rc7GLwc-171">
          <mxGeometry x="-0.063" relative="1" as="geometry">
            <mxPoint as="offset" />
          </mxGeometry>
        </mxCell>
        <mxCell id="WBMJzoi1oDwy6Rc7GLwc-173" value="Fazer Login" style="ellipse;whiteSpace=wrap;html=1;fillColor=#ffe6cc;strokeColor=#d79b00;" vertex="1" parent="1">
          <mxGeometry x="1350" y="280" width="150" height="70" as="geometry" />
        </mxCell>
        <mxCell id="WBMJzoi1oDwy6Rc7GLwc-174" style="edgeStyle=orthogonalEdgeStyle;shape=connector;curved=1;rounded=0;orthogonalLoop=1;jettySize=auto;html=1;entryX=0.5;entryY=0;entryDx=0;entryDy=0;strokeColor=default;align=center;verticalAlign=middle;fontFamily=Helvetica;fontSize=11;fontColor=default;labelBackgroundColor=default;endArrow=classic;dashed=1;" edge="1" parent="1" source="WBMJzoi1oDwy6Rc7GLwc-176" target="WBMJzoi1oDwy6Rc7GLwc-173">
          <mxGeometry relative="1" as="geometry" />
        </mxCell>
        <mxCell id="WBMJzoi1oDwy6Rc7GLwc-175" value="Include" style="edgeLabel;html=1;align=center;verticalAlign=middle;resizable=0;points=[];fontFamily=Helvetica;fontSize=11;fontColor=default;labelBackgroundColor=default;" vertex="1" connectable="0" parent="WBMJzoi1oDwy6Rc7GLwc-174">
          <mxGeometry x="0.3" y="-17" relative="1" as="geometry">
            <mxPoint as="offset" />
          </mxGeometry>
        </mxCell>
        <mxCell id="WBMJzoi1oDwy6Rc7GLwc-176" value="Realizar Cadastro/ Github" style="ellipse;whiteSpace=wrap;html=1;fillColor=#f8cecc;strokeColor=#b85450;" vertex="1" parent="1">
          <mxGeometry x="1180" y="160" width="150" height="70" as="geometry" />
        </mxCell>
        <mxCell id="WBMJzoi1oDwy6Rc7GLwc-177" value="Cadastrar ativos" style="ellipse;whiteSpace=wrap;html=1;fillColor=#dae8fc;strokeColor=#6c8ebf;" vertex="1" parent="1">
          <mxGeometry x="1460" y="420" width="150" height="70" as="geometry" />
        </mxCell>
        <mxCell id="WBMJzoi1oDwy6Rc7GLwc-178" style="edgeStyle=orthogonalEdgeStyle;shape=connector;curved=1;rounded=0;orthogonalLoop=1;jettySize=auto;html=1;entryX=0.5;entryY=1;entryDx=0;entryDy=0;strokeColor=default;align=center;verticalAlign=middle;fontFamily=Helvetica;fontSize=11;fontColor=default;labelBackgroundColor=default;endArrow=classic;dashed=1;" edge="1" parent="1" source="WBMJzoi1oDwy6Rc7GLwc-180" target="WBMJzoi1oDwy6Rc7GLwc-177">
          <mxGeometry relative="1" as="geometry" />
        </mxCell>
        <mxCell id="WBMJzoi1oDwy6Rc7GLwc-179" value="Include" style="edgeLabel;html=1;align=center;verticalAlign=middle;resizable=0;points=[];fontFamily=Helvetica;fontSize=11;fontColor=default;labelBackgroundColor=default;" vertex="1" connectable="0" parent="WBMJzoi1oDwy6Rc7GLwc-178">
          <mxGeometry x="-0.1033" y="-1" relative="1" as="geometry">
            <mxPoint as="offset" />
          </mxGeometry>
        </mxCell>
        <mxCell id="WBMJzoi1oDwy6Rc7GLwc-180" value="Visualizar Ativos" style="ellipse;whiteSpace=wrap;html=1;fillColor=#d5e8d4;strokeColor=#82b366;" vertex="1" parent="1">
          <mxGeometry x="1430" y="550" width="150" height="70" as="geometry" />
        </mxCell>
        <mxCell id="WBMJzoi1oDwy6Rc7GLwc-181" style="edgeStyle=orthogonalEdgeStyle;shape=connector;curved=1;rounded=0;orthogonalLoop=1;jettySize=auto;html=1;entryX=0.5;entryY=1;entryDx=0;entryDy=0;strokeColor=default;align=center;verticalAlign=middle;fontFamily=Helvetica;fontSize=11;fontColor=default;labelBackgroundColor=default;endArrow=classic;dashed=1;" edge="1" parent="1" source="WBMJzoi1oDwy6Rc7GLwc-183" target="WBMJzoi1oDwy6Rc7GLwc-180">
          <mxGeometry relative="1" as="geometry" />
        </mxCell>
        <mxCell id="WBMJzoi1oDwy6Rc7GLwc-182" value="Extend" style="edgeLabel;html=1;align=center;verticalAlign=middle;resizable=0;points=[];fontFamily=Helvetica;fontSize=11;fontColor=default;labelBackgroundColor=default;" vertex="1" connectable="0" parent="WBMJzoi1oDwy6Rc7GLwc-181">
          <mxGeometry x="0.2444" y="-2" relative="1" as="geometry">
            <mxPoint as="offset" />
          </mxGeometry>
        </mxCell>
        <mxCell id="WBMJzoi1oDwy6Rc7GLwc-183" value="Editar Ativos" style="ellipse;whiteSpace=wrap;html=1;fillColor=#e1d5e7;strokeColor=#9673a6;" vertex="1" parent="1">
          <mxGeometry x="1340" y="680" width="150" height="70" as="geometry" />
        </mxCell>
        <mxCell id="WBMJzoi1oDwy6Rc7GLwc-184" style="edgeStyle=orthogonalEdgeStyle;rounded=0;orthogonalLoop=1;jettySize=auto;html=1;entryX=0;entryY=0.5;entryDx=0;entryDy=0;curved=1;" edge="1" parent="1" source="WBMJzoi1oDwy6Rc7GLwc-189" target="WBMJzoi1oDwy6Rc7GLwc-176">
          <mxGeometry relative="1" as="geometry" />
        </mxCell>
        <mxCell id="WBMJzoi1oDwy6Rc7GLwc-185" style="edgeStyle=orthogonalEdgeStyle;shape=connector;curved=1;rounded=0;orthogonalLoop=1;jettySize=auto;html=1;entryX=0;entryY=0.5;entryDx=0;entryDy=0;strokeColor=default;align=center;verticalAlign=middle;fontFamily=Helvetica;fontSize=11;fontColor=default;labelBackgroundColor=default;endArrow=classic;" edge="1" parent="1" source="WBMJzoi1oDwy6Rc7GLwc-189" target="WBMJzoi1oDwy6Rc7GLwc-173">
          <mxGeometry relative="1" as="geometry" />
        </mxCell>
        <mxCell id="WBMJzoi1oDwy6Rc7GLwc-186" style="edgeStyle=orthogonalEdgeStyle;shape=connector;curved=1;rounded=0;orthogonalLoop=1;jettySize=auto;html=1;entryX=0;entryY=0.5;entryDx=0;entryDy=0;strokeColor=default;align=center;verticalAlign=middle;fontFamily=Helvetica;fontSize=11;fontColor=default;labelBackgroundColor=default;endArrow=classic;" edge="1" parent="1" source="WBMJzoi1oDwy6Rc7GLwc-189" target="WBMJzoi1oDwy6Rc7GLwc-183">
          <mxGeometry relative="1" as="geometry" />
        </mxCell>
        <mxCell id="WBMJzoi1oDwy6Rc7GLwc-187" style="edgeStyle=orthogonalEdgeStyle;shape=connector;curved=1;rounded=0;orthogonalLoop=1;jettySize=auto;html=1;entryX=0;entryY=0.5;entryDx=0;entryDy=0;strokeColor=default;align=center;verticalAlign=middle;fontFamily=Helvetica;fontSize=11;fontColor=default;labelBackgroundColor=default;endArrow=classic;" edge="1" parent="1" source="WBMJzoi1oDwy6Rc7GLwc-189" target="WBMJzoi1oDwy6Rc7GLwc-192">
          <mxGeometry relative="1" as="geometry" />
        </mxCell>
        <mxCell id="WBMJzoi1oDwy6Rc7GLwc-188" style="edgeStyle=orthogonalEdgeStyle;shape=connector;curved=1;rounded=0;orthogonalLoop=1;jettySize=auto;html=1;entryX=0;entryY=0.5;entryDx=0;entryDy=0;strokeColor=default;align=center;verticalAlign=middle;fontFamily=Helvetica;fontSize=11;fontColor=default;labelBackgroundColor=default;endArrow=classic;" edge="1" parent="1" source="WBMJzoi1oDwy6Rc7GLwc-189" target="WBMJzoi1oDwy6Rc7GLwc-195">
          <mxGeometry relative="1" as="geometry" />
        </mxCell>
        <mxCell id="WBMJzoi1oDwy6Rc7GLwc-189" value="Usuario" style="shape=umlActor;verticalLabelPosition=bottom;verticalAlign=top;html=1;outlineConnect=0;fillColor=#d80073;strokeColor=#A50040;fontColor=#ffffff;" vertex="1" parent="1">
          <mxGeometry x="990" y="400" width="30" height="60" as="geometry" />
        </mxCell>
        <mxCell id="WBMJzoi1oDwy6Rc7GLwc-190" style="edgeStyle=orthogonalEdgeStyle;shape=connector;curved=1;rounded=0;orthogonalLoop=1;jettySize=auto;html=1;entryX=1;entryY=0.5;entryDx=0;entryDy=0;strokeColor=default;align=center;verticalAlign=middle;fontFamily=Helvetica;fontSize=11;fontColor=default;labelBackgroundColor=default;endArrow=classic;dashed=1;" edge="1" parent="1" source="WBMJzoi1oDwy6Rc7GLwc-192" target="WBMJzoi1oDwy6Rc7GLwc-177">
          <mxGeometry relative="1" as="geometry" />
        </mxCell>
        <mxCell id="WBMJzoi1oDwy6Rc7GLwc-191" value="Include" style="edgeLabel;html=1;align=center;verticalAlign=middle;resizable=0;points=[];fontFamily=Helvetica;fontSize=11;fontColor=default;labelBackgroundColor=default;" vertex="1" connectable="0" parent="WBMJzoi1oDwy6Rc7GLwc-190">
          <mxGeometry x="0.0063" y="1" relative="1" as="geometry">
            <mxPoint as="offset" />
          </mxGeometry>
        </mxCell>
        <mxCell id="WBMJzoi1oDwy6Rc7GLwc-192" value="Alterar Status" style="ellipse;whiteSpace=wrap;html=1;fillColor=#b1ddf0;strokeColor=#10739e;" vertex="1" parent="1">
          <mxGeometry x="1530" y="780" width="150" height="70" as="geometry" />
        </mxCell>
        <mxCell id="WBMJzoi1oDwy6Rc7GLwc-193" style="edgeStyle=orthogonalEdgeStyle;shape=connector;curved=1;rounded=0;orthogonalLoop=1;jettySize=auto;html=1;entryX=1;entryY=0.5;entryDx=0;entryDy=0;strokeColor=default;align=center;verticalAlign=middle;fontFamily=Helvetica;fontSize=11;fontColor=default;labelBackgroundColor=default;endArrow=classic;dashed=1;" edge="1" parent="1" source="WBMJzoi1oDwy6Rc7GLwc-195" target="WBMJzoi1oDwy6Rc7GLwc-173">
          <mxGeometry relative="1" as="geometry">
            <Array as="points">
              <mxPoint x="1720" y="905" />
              <mxPoint x="1720" y="630" />
              <mxPoint x="1730" y="630" />
              <mxPoint x="1730" y="315" />
            </Array>
          </mxGeometry>
        </mxCell>
        <mxCell id="WBMJzoi1oDwy6Rc7GLwc-194" value="Extend" style="edgeLabel;html=1;align=center;verticalAlign=middle;resizable=0;points=[];fontFamily=Helvetica;fontSize=11;fontColor=default;labelBackgroundColor=default;" vertex="1" connectable="0" parent="WBMJzoi1oDwy6Rc7GLwc-193">
          <mxGeometry x="-0.1821" y="-2" relative="1" as="geometry">
            <mxPoint as="offset" />
          </mxGeometry>
        </mxCell>
        <mxCell id="WBMJzoi1oDwy6Rc7GLwc-195" value="Logout" style="ellipse;whiteSpace=wrap;html=1;fillColor=#bac8d3;strokeColor=#23445d;" vertex="1" parent="1">
          <mxGeometry x="1360" y="870" width="150" height="70" as="geometry" />
        </mxCell>
        <mxCell id="WBMJzoi1oDwy6Rc7GLwc-196" style="edgeStyle=orthogonalEdgeStyle;shape=connector;curved=1;rounded=0;orthogonalLoop=1;jettySize=auto;html=1;entryX=0;entryY=0.5;entryDx=0;entryDy=0;strokeColor=default;align=center;verticalAlign=middle;fontFamily=Helvetica;fontSize=11;fontColor=default;labelBackgroundColor=default;endArrow=classic;" edge="1" parent="1" source="WBMJzoi1oDwy6Rc7GLwc-189" target="WBMJzoi1oDwy6Rc7GLwc-177">
          <mxGeometry relative="1" as="geometry" />
        </mxCell>
        <mxCell id="WBMJzoi1oDwy6Rc7GLwc-197" style="edgeStyle=orthogonalEdgeStyle;shape=connector;curved=1;rounded=0;orthogonalLoop=1;jettySize=auto;html=1;entryX=0.004;entryY=0.614;entryDx=0;entryDy=0;entryPerimeter=0;strokeColor=default;align=center;verticalAlign=middle;fontFamily=Helvetica;fontSize=11;fontColor=default;labelBackgroundColor=default;endArrow=classic;" edge="1" parent="1" source="WBMJzoi1oDwy6Rc7GLwc-189" target="WBMJzoi1oDwy6Rc7GLwc-180">
          <mxGeometry relative="1" as="geometry" />
        </mxCell>
        <mxCell id="WBMJzoi1oDwy6Rc7GLwc-198" value="&lt;font style=&quot;font-size: 25px;&quot;&gt;Casos De Uso&lt;/font&gt;" style="text;html=1;align=center;verticalAlign=middle;resizable=0;points=[];autosize=1;strokeColor=#006EAF;fillColor=#1ba1e2;fontColor=#ffffff;" vertex="1" parent="1">
          <mxGeometry x="1230" y="80" width="180" height="40" as="geometry" />
        </mxCell>
      </root>
    </mxGraphModel>
  </diagram>
</mxfile>
